<svg width="20" height="23" viewBox="0 0 20 23" fill="none" xmlns="http://www.w3.org/2000/svg">
<path d="M12.3515 21.0289H7.60148C3.30273 21.0289 1.46606 18.9644 1.46606 14.1323V8.79306C1.46606 3.96101 3.30273 1.89648 7.60148 1.89648H11.5598C11.8844 1.89648 12.1536 2.19904 12.1536 2.56389C12.1536 2.92875 11.8844 3.23131 11.5598 3.23131H7.60148C3.9519 3.23131 2.65356 4.69071 2.65356 8.79306V14.1323C2.65356 18.2347 3.9519 19.6941 7.60148 19.6941H12.3515C16.0011 19.6941 17.2994 18.2347 17.2994 14.1323V9.68294C17.2994 9.31809 17.5686 9.01553 17.8931 9.01553C18.2177 9.01553 18.4869 9.31809 18.4869 9.68294V14.1323C18.4869 18.9644 16.6502 21.0289 12.3515 21.0289Z" fill="#023E8A"/>
<path d="M17.8931 10.349H14.7265C12.019 10.349 10.9661 9.1655 10.9661 6.1221V2.56258C10.9661 2.29562 11.1086 2.04645 11.3302 1.94856C11.5519 1.84178 11.8052 1.90407 11.9794 2.09094L18.3127 9.20999C18.479 9.39686 18.5344 9.69053 18.4394 9.93969C18.3444 10.1889 18.1306 10.349 17.8931 10.349ZM12.1536 4.17327V6.1221C12.1536 8.418 12.684 9.01422 14.7265 9.01422H16.4602L12.1536 4.17327Z" fill="#023E8A"/>
</svg>
