<svg width="17" height="16" viewBox="0 0 17 16" fill="none" xmlns="http://www.w3.org/2000/svg">
<path d="M14.3333 14.666H2.33325C2.05992 14.666 1.83325 14.4393 1.83325 14.166C1.83325 13.8927 2.05992 13.666 2.33325 13.666H14.3333C14.6066 13.666 14.8333 13.8927 14.8333 14.166C14.8333 14.4393 14.6066 14.666 14.3333 14.666Z" fill="#023E8A" fill-opacity="0.7"/>
<path d="M13.0134 2.32043C11.72 1.0271 10.4534 0.993764 9.12672 2.32043L8.32005 3.1271C8.25338 3.19376 8.22672 3.30043 8.25338 3.39376C8.76005 5.16043 10.1734 6.57376 11.94 7.08043C11.9667 7.0871 11.9934 7.09376 12.0201 7.09376C12.0934 7.09376 12.16 7.0671 12.2134 7.01376L13.0134 6.2071C13.6734 5.55376 13.9934 4.92043 13.9934 4.28043C14 3.62043 13.68 2.98043 13.0134 2.32043Z" fill="#023E8A" fill-opacity="0.7"/>
<path d="M10.7398 7.68654C10.5465 7.5932 10.3598 7.49987 10.1798 7.3932C10.0331 7.30654 9.89314 7.2132 9.75314 7.1132C9.63981 7.03987 9.50647 6.9332 9.37981 6.82654C9.36647 6.81987 9.31981 6.77987 9.26647 6.72654C9.04647 6.53987 8.79981 6.29987 8.57981 6.0332C8.55981 6.01987 8.52647 5.9732 8.47981 5.9132C8.41314 5.8332 8.29981 5.69987 8.19981 5.54654C8.11981 5.44654 8.02647 5.29987 7.93981 5.1532C7.83314 4.9732 7.73981 4.7932 7.64647 4.60654C7.63235 4.57627 7.61868 4.54616 7.60543 4.51623C7.50705 4.29402 7.21729 4.22905 7.04545 4.40089L3.22647 8.21987C3.13981 8.30654 3.05981 8.4732 3.03981 8.58654L2.67981 11.1399C2.61314 11.5932 2.73981 12.0199 3.01981 12.3065C3.25981 12.5399 3.59314 12.6665 3.95314 12.6665C4.03314 12.6665 4.11314 12.6599 4.19314 12.6465L6.75314 12.2865C6.87314 12.2665 7.03981 12.1865 7.11981 12.0999L10.934 8.28566C11.107 8.11263 11.0418 7.81565 10.8167 7.71961C10.7914 7.7088 10.7658 7.69778 10.7398 7.68654Z" fill="#023E8A" fill-opacity="0.7"/>
</svg>
