<svg width="36" height="49" viewBox="0 0 36 49" fill="none" xmlns="http://www.w3.org/2000/svg">
<path d="M18.3178 40.1599C15.9178 40.1599 13.9542 42.1236 13.9542 44.5236C13.9542 46.9236 15.9178 48.8872 18.3178 48.8872C20.7178 48.8872 22.6815 46.9236 22.6815 44.5236C22.6815 42.1236 20.7178 40.1599 18.3178 40.1599ZM5.22692 0.887207C2.82692 0.887207 0.863281 2.85084 0.863281 5.25084C0.863281 7.65084 2.82692 9.61448 5.22692 9.61448C7.62692 9.61448 9.59055 7.65084 9.59055 5.25084C9.59055 2.85084 7.62692 0.887207 5.22692 0.887207ZM5.22692 13.9781C2.82692 13.9781 0.863281 15.9418 0.863281 18.3418C0.863281 20.7418 2.82692 22.7054 5.22692 22.7054C7.62692 22.7054 9.59055 20.7418 9.59055 18.3418C9.59055 15.9418 7.62692 13.9781 5.22692 13.9781ZM5.22692 27.069C2.82692 27.069 0.863281 29.0327 0.863281 31.4327C0.863281 33.8327 2.82692 35.7963 5.22692 35.7963C7.62692 35.7963 9.59055 33.8327 9.59055 31.4327C9.59055 29.0327 7.62692 27.069 5.22692 27.069ZM31.4087 9.61448C33.8087 9.61448 35.7724 7.65084 35.7724 5.25084C35.7724 2.85084 33.8087 0.887207 31.4087 0.887207C29.0087 0.887207 27.0451 2.85084 27.0451 5.25084C27.0451 7.65084 29.0087 9.61448 31.4087 9.61448ZM18.3178 27.069C15.9178 27.069 13.9542 29.0327 13.9542 31.4327C13.9542 33.8327 15.9178 35.7963 18.3178 35.7963C20.7178 35.7963 22.6815 33.8327 22.6815 31.4327C22.6815 29.0327 20.7178 27.069 18.3178 27.069ZM31.4087 27.069C29.0087 27.069 27.0451 29.0327 27.0451 31.4327C27.0451 33.8327 29.0087 35.7963 31.4087 35.7963C33.8087 35.7963 35.7724 33.8327 35.7724 31.4327C35.7724 29.0327 33.8087 27.069 31.4087 27.069ZM31.4087 13.9781C29.0087 13.9781 27.0451 15.9418 27.0451 18.3418C27.0451 20.7418 29.0087 22.7054 31.4087 22.7054C33.8087 22.7054 35.7724 20.7418 35.7724 18.3418C35.7724 15.9418 33.8087 13.9781 31.4087 13.9781ZM18.3178 13.9781C15.9178 13.9781 13.9542 15.9418 13.9542 18.3418C13.9542 20.7418 15.9178 22.7054 18.3178 22.7054C20.7178 22.7054 22.6815 20.7418 22.6815 18.3418C22.6815 15.9418 20.7178 13.9781 18.3178 13.9781ZM18.3178 0.887207C15.9178 0.887207 13.9542 2.85084 13.9542 5.25084C13.9542 7.65084 15.9178 9.61448 18.3178 9.61448C20.7178 9.61448 22.6815 7.65084 22.6815 5.25084C22.6815 2.85084 20.7178 0.887207 18.3178 0.887207Z" fill="#0077B6"/>
</svg>
