<svg width="49" height="49" viewBox="0 0 49 49" fill="none" xmlns="http://www.w3.org/2000/svg">
<path d="M5.52705 39.1323H10.3271V48.8872L22.5695 39.1323H34.3271C36.9743 39.1323 39.1271 36.9882 39.1271 34.3517V15.2291C39.1271 12.5926 36.9743 10.4485 34.3271 10.4485H5.52705C2.87985 10.4485 0.727051 12.5926 0.727051 15.2291V34.3517C0.727051 36.9882 2.87985 39.1323 5.52705 39.1323Z" fill="#0077B6"/>
<path d="M43.9272 0.887207H15.1271C12.4799 0.887207 10.3271 3.03132 10.3271 5.66785H39.1271C41.7743 5.66785 43.9272 7.81196 43.9272 10.4485V29.571C46.5743 29.571 48.7271 27.4269 48.7271 24.7904V5.66785C48.7271 3.03132 46.5743 0.887207 43.9272 0.887207Z" fill="#0077B6"/>
</svg>
