<svg width="48" height="49" viewBox="0 0 48 49" fill="none" xmlns="http://www.w3.org/2000/svg">
<path fill-rule="evenodd" clip-rule="evenodd" d="M0 8.64893C0 6.52719 0.842855 4.49236 2.34315 2.99207C3.84344 1.49178 5.87827 0.648926 8 0.648926H40C42.1217 0.648926 44.1566 1.49178 45.6569 2.99207C47.1571 4.49236 48 6.52719 48 8.64893V40.6489C48 42.7707 47.1571 44.8055 45.6569 46.3058C44.1566 47.8061 42.1217 48.6489 40 48.6489H8C5.87827 48.6489 3.84344 47.8061 2.34315 46.3058C0.842855 44.8055 0 42.7707 0 40.6489V8.64893ZM26.6667 13.9823C26.6667 13.275 26.3857 12.5967 25.8856 12.0966C25.3855 11.5965 24.7072 11.3156 24 11.3156C23.2928 11.3156 22.6145 11.5965 22.1144 12.0966C21.6143 12.5967 21.3333 13.275 21.3333 13.9823V35.3156C21.3333 36.0228 21.6143 36.7011 22.1144 37.2012C22.6145 37.7013 23.2928 37.9823 24 37.9823C24.7072 37.9823 25.3855 37.7013 25.8856 37.2012C26.3857 36.7011 26.6667 36.0228 26.6667 35.3156V13.9823ZM16 21.9823C16 21.275 15.719 20.5967 15.219 20.0966C14.7189 19.5965 14.0406 19.3156 13.3333 19.3156C12.6261 19.3156 11.9478 19.5965 11.4477 20.0966C10.9476 20.5967 10.6667 21.275 10.6667 21.9823V35.3156C10.6667 36.0228 10.9476 36.7011 11.4477 37.2012C11.9478 37.7013 12.6261 37.9823 13.3333 37.9823C14.0406 37.9823 14.7189 37.7013 15.219 37.2012C15.719 36.7011 16 36.0228 16 35.3156V21.9823ZM37.3333 29.9823C37.3333 29.275 37.0524 28.5967 36.5523 28.0966C36.0522 27.5965 35.3739 27.3156 34.6667 27.3156C33.9594 27.3156 33.2811 27.5965 32.7811 28.0966C32.281 28.5967 32 29.275 32 29.9823V35.3156C32 36.0228 32.281 36.7011 32.7811 37.2012C33.2811 37.7013 33.9594 37.9823 34.6667 37.9823C35.3739 37.9823 36.0522 37.7013 36.5523 37.2012C37.0524 36.7011 37.3333 36.0228 37.3333 35.3156V29.9823Z" fill="#0077B6"/>
</svg>
