<svg width="106" height="33" viewBox="0 0 106 33" fill="none" xmlns="http://www.w3.org/2000/svg">
<path d="M36.7577 30.31C37.2328 29.8349 38.0028 29.8349 38.4615 30.31C38.9366 30.7851 38.9366 31.5551 38.4615 32.0138C37.9864 32.4889 37.2164 32.4889 36.7577 32.0138C36.2826 31.5387 36.2826 30.7851 36.7577 30.31ZM34.0217 29.5564C34.6771 29.5564 35.2013 30.0806 35.2013 30.736C35.2013 31.3913 34.6771 31.9155 34.0217 31.9155C33.3664 31.9155 32.8422 31.3913 32.8422 30.736C32.8422 30.0806 33.3664 29.5564 34.0217 29.5564ZM30.6469 28.3113C30.0079 28.3113 29.5001 28.8192 29.5001 29.4581C29.5001 30.097 30.0079 30.6049 30.6469 30.6049C31.2858 30.6049 31.7937 30.097 31.7937 29.4581C31.7937 28.8192 31.2694 28.3113 30.6469 28.3113ZM26.8788 26.6075C27.3048 26.1815 28.0092 26.1815 28.4352 26.6075C28.8611 27.0334 28.8611 27.7379 28.4352 28.1638C28.0092 28.5898 27.3048 28.5898 26.8788 28.1638C26.4529 27.7379 26.4529 27.0334 26.8788 26.6075ZM25.2569 23.6094C25.8467 23.6094 26.3218 24.0845 26.3218 24.6743C26.3218 25.2641 25.8467 25.7392 25.2569 25.7392C24.6671 25.7392 24.192 25.2641 24.192 24.6743C24.192 24.0845 24.6671 23.6094 25.2569 23.6094ZM23.3401 20.4639C23.8971 20.3328 24.4541 20.6769 24.5852 21.2339C24.7163 21.7909 24.3722 22.3479 23.8152 22.479C23.2582 22.61 22.7012 22.266 22.5701 21.709C22.439 21.152 22.7831 20.5949 23.3401 20.4639ZM22.7176 16.9579C23.2746 16.9579 23.7169 17.4003 23.7169 17.9573C23.7169 18.5143 23.2746 18.9567 22.7176 18.9567C22.1605 18.9567 21.7182 18.5143 21.7182 17.9573C21.7182 17.4003 22.1605 16.9579 22.7176 16.9579ZM22.7176 15.3197C23.2582 15.3197 23.7005 14.8773 23.7005 14.3367C23.7005 13.796 23.2582 13.3537 22.7176 13.3537C22.1769 13.3537 21.7346 13.796 21.7346 14.3367C21.7182 14.8773 22.1769 15.3197 22.7176 15.3197ZM23.5695 11.781C24.0937 11.781 24.5197 11.355 24.5197 10.8307C24.5197 10.3065 24.0937 9.88054 23.5695 9.88054C23.0452 9.88054 22.6193 10.3065 22.6193 10.8307C22.6356 11.3386 23.0452 11.781 23.5695 11.781ZM24.618 6.98077C24.9784 6.62035 25.5518 6.62035 25.9122 6.98077C26.2726 7.34119 26.2726 7.91459 25.9122 8.27502C25.5518 8.63544 24.9784 8.63544 24.618 8.27502C24.2575 7.91459 24.2575 7.32481 24.618 6.98077ZM27.6652 4.01547C28.1567 4.01547 28.5662 4.40866 28.5662 4.91653C28.5662 5.40801 28.1731 5.81758 27.6652 5.81758C27.1737 5.81758 26.7641 5.4244 26.7641 4.91653C26.7641 4.40866 27.1737 4.01547 27.6652 4.01547ZM30.4503 2.01676C30.909 1.90208 31.3677 2.19697 31.4824 2.65569C31.5971 3.11441 31.3022 3.57313 30.8435 3.68781C30.3847 3.80249 29.926 3.5076 29.8113 3.04888C29.6967 2.59016 29.9752 2.13144 30.4503 2.01676ZM34.0217 2.37718C34.4805 2.37718 34.8409 2.01676 34.8409 1.55804C34.8409 1.09932 34.4805 0.738894 34.0217 0.738894C33.563 0.738894 33.2026 1.09932 33.2026 1.55804C33.2026 2.01676 33.563 2.37718 34.0217 2.37718ZM36.7577 26.5419C37.2328 26.0668 38.0028 26.0668 38.4615 26.5419C38.9366 27.017 38.9366 27.787 38.4615 28.2458C37.9864 28.7209 37.2164 28.7209 36.7577 28.2458C36.2826 27.787 36.2826 27.017 36.7577 26.5419ZM34.1528 25.69C33.4975 25.69 32.9896 26.2143 32.9896 26.8532C32.9896 27.5085 33.5139 28.0164 34.1528 28.0164C34.7917 28.0164 35.316 27.4921 35.316 26.8532C35.2996 26.2143 34.7754 25.69 34.1528 25.69ZM29.9752 24.8217C30.2045 24.2483 30.8762 23.9698 31.4333 24.2156C31.9903 24.4613 32.2852 25.1166 32.0394 25.6736C31.8101 26.247 31.1384 26.5256 30.5813 26.2798C30.0079 26.0504 29.7294 25.3951 29.9752 24.8217ZM28.5171 21.6762C27.9273 21.6762 27.4358 22.1677 27.4358 22.7575C27.4358 23.3473 27.9273 23.8388 28.5171 23.8388C29.1069 23.8388 29.5984 23.3473 29.5984 22.7575C29.582 22.1677 29.0905 21.6762 28.5171 21.6762ZM26.9116 20.6605C27.485 20.6605 27.9437 20.1854 27.9437 19.6284C27.9437 19.0713 27.4686 18.5962 26.9116 18.5962C26.3546 18.5962 25.8795 19.0713 25.8795 19.6284C25.8795 20.1854 26.3382 20.6605 26.9116 20.6605ZM26.1416 15.1722C26.6822 15.0411 27.2228 15.3852 27.3375 15.9094C27.4686 16.4501 27.1246 16.9907 26.6003 17.1054C26.0597 17.2365 25.519 16.8924 25.4043 16.3682C25.2569 15.8275 25.6009 15.2869 26.1416 15.1722ZM26.6986 11.7482C27.2065 11.6335 27.7143 11.9448 27.8454 12.4527C27.9765 12.9605 27.6488 13.4684 27.1409 13.5995C26.6331 13.7305 26.1252 13.4029 25.9941 12.895C25.8631 12.3707 26.1743 11.8629 26.6986 11.7482ZM27.5997 9.5365C27.5997 10.0444 28.0092 10.4539 28.5171 10.4539C29.025 10.4539 29.4345 10.0444 29.4345 9.5365C29.4345 9.02863 29.025 8.61906 28.5171 8.61906C28.0092 8.61906 27.5997 9.02863 27.5997 9.5365ZM30.139 7.0463C30.139 7.52141 30.5322 7.9146 31.0073 7.9146C31.4824 7.9146 31.8756 7.52141 31.8756 7.0463C31.8756 6.5712 31.4824 6.17801 31.0073 6.17801C30.5322 6.17801 30.139 6.55481 30.139 7.0463ZM34.1528 4.60525C33.6941 4.60525 33.3337 4.96568 33.3337 5.4244C33.3337 5.88312 33.6941 6.24354 34.1528 6.24354C34.6115 6.24354 34.972 5.88312 34.972 5.4244C34.972 4.96568 34.5951 4.60525 34.1528 4.60525ZM36.7577 22.7739C37.2328 22.2988 38.0028 22.2988 38.4615 22.7739C38.9366 23.249 38.9366 24.019 38.4615 24.4777C37.9864 24.9528 37.2164 24.9528 36.7577 24.4777C36.299 24.0026 36.299 23.249 36.7577 22.7739ZM34.1528 21.5943C33.4975 21.5943 32.9732 22.1186 32.9732 22.7739C32.9732 23.4292 33.4975 23.9534 34.1528 23.9534C34.8081 23.9534 35.3324 23.4292 35.3324 22.7739C35.316 22.1186 34.7917 21.5943 34.1528 21.5943ZM31.466 19.2843C30.8598 19.2843 30.3684 19.7758 30.3684 20.382C30.3684 20.9881 30.8598 21.4796 31.466 21.4796C32.0722 21.4796 32.5637 20.9881 32.5637 20.382C32.5637 19.7758 32.0722 19.2843 31.466 19.2843ZM30.2045 18.0884C30.7779 18.0884 31.2367 17.6133 31.2367 17.0562C31.2367 16.4828 30.7616 16.0241 30.2045 16.0241C29.6475 16.0241 29.1724 16.4992 29.1724 17.0562C29.156 17.6296 29.6311 18.0884 30.2045 18.0884ZM30.6305 14.4514C31.1547 14.4514 31.5971 14.009 31.5971 13.4848C31.5971 12.9605 31.1547 12.5182 30.6305 12.5182C30.1062 12.5182 29.6639 12.9605 29.6639 13.4848C29.6639 14.0418 30.0899 14.4514 30.6305 14.4514ZM32.662 9.65118C33.1535 9.65118 33.563 10.0444 33.563 10.5522C33.563 11.0437 33.1698 11.4533 32.662 11.4533C32.1705 11.4533 31.7609 11.0601 31.7609 10.5522C31.7609 10.0608 32.1541 9.65118 32.662 9.65118ZM35.8239 8.07843C35.3651 8.07843 35.0211 8.43885 35.0211 8.88119C35.0211 9.32352 35.3815 9.68395 35.8239 9.68395C36.2662 9.68395 36.6266 9.32352 36.6266 8.88119C36.6266 8.43885 36.2662 8.07843 35.8239 8.07843ZM37.6096 1.91846C38.0519 1.91846 38.396 1.57442 38.396 1.13208C38.396 0.689744 38.0519 0.345703 37.6096 0.345703C37.1673 0.345703 36.8232 0.689744 36.8232 1.13208C36.8232 1.57442 37.1836 1.91846 37.6096 1.91846ZM41.2138 2.32803C41.6398 2.32803 41.9838 1.98399 41.9838 1.55804C41.9838 1.13208 41.6398 0.788043 41.2138 0.788043C40.7879 0.788043 40.4438 1.13208 40.4438 1.55804C40.4438 1.98399 40.7879 2.32803 41.2138 2.32803ZM44.5887 3.57313C44.9983 3.57313 45.3259 3.24548 45.3259 2.8359C45.3259 2.42633 44.9983 2.09867 44.5887 2.09867C44.1791 2.09867 43.8515 2.42633 43.8515 2.8359C43.8515 3.24548 44.1955 3.57313 44.5887 3.57313ZM47.5704 5.58823C47.9636 5.58823 48.2585 5.27695 48.2585 4.90015C48.2585 4.50696 47.9472 4.21206 47.5704 4.21206C47.1772 4.21206 46.8823 4.52334 46.8823 4.90015C46.8823 5.29334 47.21 5.58823 47.5704 5.58823ZM49.9787 6.94801C49.6183 6.94801 49.307 7.2429 49.307 7.6197C49.307 7.99651 49.6019 8.2914 49.9787 8.2914C50.3555 8.2914 50.6504 7.99651 50.6504 7.6197C50.6504 7.2429 50.3391 6.94801 49.9787 6.94801ZM51.6497 11.4533C51.9938 11.4533 52.2887 11.1748 52.2887 10.8144C52.2887 10.4539 52.0102 10.1754 51.6497 10.1754C51.2893 10.1754 51.0108 10.4539 51.0108 10.8144C51.0272 11.1584 51.3221 11.4533 51.6497 11.4533ZM51.9119 14.3367C51.9119 14.6643 52.174 14.9265 52.5016 14.9265C52.8293 14.9265 53.0914 14.6643 53.0914 14.3367C53.0914 14.009 52.8293 13.7469 52.5016 13.7469C52.174 13.7469 51.9119 14.009 51.9119 14.3367ZM52.5344 17.3839C52.8457 17.3839 53.1078 17.646 53.1078 17.9573C53.1078 18.2686 52.8457 18.5307 52.5344 18.5307C52.2231 18.5307 51.961 18.2686 51.961 17.9573C51.961 17.646 52.2067 17.3839 52.5344 17.3839ZM51.6497 20.9226C51.3548 20.9226 51.1091 21.1683 51.1091 21.4632C51.1091 21.7581 51.3548 22.0039 51.6497 22.0039C51.9446 22.0039 52.1904 21.7581 52.1904 21.4632C52.1904 21.1683 51.9774 20.9226 51.6497 20.9226ZM49.9787 24.1664C49.7002 24.1664 49.4708 24.3958 49.4708 24.6743C49.4708 24.9528 49.7002 25.1822 49.9787 25.1822C50.2572 25.1822 50.4865 24.9528 50.4865 24.6743C50.4865 24.3958 50.2572 24.1664 49.9787 24.1664ZM47.5704 26.9024C47.8489 26.9024 48.0619 27.1153 48.0619 27.3938C48.0619 27.6724 47.8489 27.8853 47.5704 27.8853C47.2919 27.8853 47.0789 27.6724 47.0789 27.3938C47.0789 27.1153 47.3083 26.9024 47.5704 26.9024ZM44.5887 28.983C44.343 28.983 44.13 29.196 44.13 29.4417C44.13 29.6874 44.343 29.9004 44.5887 29.9004C44.8344 29.9004 45.0474 29.6874 45.0474 29.4417C45.0474 29.196 44.8508 28.983 44.5887 28.983ZM41.2138 30.31C41.4432 30.31 41.6398 30.4902 41.6398 30.736C41.6398 30.9653 41.4596 31.1619 41.2138 31.1619C40.9681 31.1619 40.7879 30.9817 40.7879 30.736C40.7879 30.4902 40.9845 30.31 41.2138 30.31ZM37.6096 4.09738C37.1673 4.09738 36.8068 4.44143 36.8068 4.90015C36.8068 5.35887 37.1509 5.70291 37.6096 5.70291C38.0683 5.70291 38.4124 5.35887 38.4124 4.90015C38.4124 4.44143 38.0519 4.09738 37.6096 4.09738ZM41.0992 4.67079C40.6732 4.67079 40.3455 4.99844 40.3455 5.4244C40.3455 5.85035 40.6732 6.17801 41.0992 6.17801C41.5251 6.17801 41.8528 5.85035 41.8528 5.4244C41.8528 5.03121 41.5251 4.67079 41.0992 4.67079ZM44.2447 7.76715C44.6379 7.76715 44.9655 7.45587 44.9655 7.0463C44.9655 6.63673 44.6542 6.32546 44.2447 6.32546C43.8351 6.32546 43.5238 6.63673 43.5238 7.0463C43.5238 7.43949 43.8351 7.76715 44.2447 7.76715ZM46.7349 8.8648C47.0953 8.8648 47.4066 9.1597 47.4066 9.5365C47.4066 9.89692 47.1117 10.2082 46.7349 10.2082C46.3581 10.2082 46.0632 9.91331 46.0632 9.5365C46.0632 9.1597 46.3581 8.8648 46.7349 8.8648ZM47.7015 12.6656C47.7015 13.0097 47.98 13.3046 48.3404 13.3046C48.7008 13.3046 48.9793 13.0261 48.9793 12.6656C48.9793 12.3052 48.7008 12.0267 48.3404 12.0267C47.98 12.0431 47.7015 12.3216 47.7015 12.6656ZM48.8646 15.5654C48.537 15.5654 48.2749 15.8275 48.2749 16.1552C48.2749 16.4828 48.537 16.745 48.8646 16.745C49.1923 16.745 49.4544 16.4828 49.4544 16.1552C49.4544 15.8275 49.2087 15.5654 48.8646 15.5654ZM48.324 19.0877C48.6189 19.0877 48.8646 19.3335 48.8646 19.6284C48.8646 19.9233 48.6189 20.169 48.324 20.169C48.0291 20.169 47.7834 19.9233 47.7834 19.6284C47.7834 19.3335 48.0291 19.0877 48.324 19.0877ZM46.7185 22.266C46.44 22.266 46.2106 22.4954 46.2106 22.7739C46.2106 23.0524 46.44 23.2817 46.7185 23.2817C46.997 23.2817 47.2263 23.0524 47.2263 22.7739C47.2263 22.479 47.0134 22.266 46.7185 22.266ZM44.7034 25.2477C44.7034 24.9856 44.4904 24.7726 44.2283 24.7726C43.9662 24.7726 43.7532 24.9856 43.7532 25.2477C43.7532 25.5098 43.9662 25.7228 44.2283 25.7228C44.4904 25.7228 44.7034 25.5262 44.7034 25.2477ZM41.0828 26.4109C41.3285 26.4109 41.5251 26.6075 41.5251 26.8532C41.5251 27.099 41.3285 27.2955 41.0828 27.2955C40.837 27.2955 40.6404 27.099 40.6404 26.8532C40.6404 26.6075 40.837 26.4109 41.0828 26.4109ZM39.4117 8.11119C39.8377 8.11119 40.1817 8.45523 40.1817 8.88119C40.1817 9.30714 39.8377 9.65118 39.4117 9.65118C38.9858 9.65118 38.6417 9.30714 38.6417 8.88119C38.6417 8.45523 38.9858 8.11119 39.4117 8.11119ZM42.5736 9.84778C42.1804 9.84778 41.8691 10.1591 41.8691 10.5522C41.8691 10.9454 42.1804 11.2567 42.5736 11.2567C42.9668 11.2567 43.2781 10.9454 43.2781 10.5522C43.2781 10.1591 42.9668 9.84778 42.5736 9.84778ZM44.6051 12.8458C44.261 12.8458 43.9662 13.1244 43.9662 13.4848C43.9662 13.8452 44.2447 14.1237 44.6051 14.1237C44.9655 14.1237 45.244 13.8452 45.244 13.4848C45.244 13.1244 44.9655 12.8458 44.6051 12.8458ZM45.0474 16.4337C44.7198 16.4337 44.4576 16.6958 44.4576 17.0235C44.4576 17.3511 44.7198 17.6133 45.0474 17.6133C45.3751 17.6133 45.6372 17.3511 45.6372 17.0235C45.6372 16.6958 45.3587 16.4337 45.0474 16.4337ZM44.3102 20.382C44.3102 20.0871 44.0645 19.8413 43.7859 19.8413C43.5074 19.8413 43.2617 20.0871 43.2617 20.382C43.2617 20.6769 43.5074 20.9062 43.7859 20.9062C44.0645 20.9062 44.3102 20.6769 44.3102 20.382ZM41.0992 22.2988C41.3613 22.2988 41.5743 22.5117 41.5743 22.7739C41.5743 23.036 41.3613 23.249 41.0992 23.249C40.837 23.249 40.624 23.036 40.624 22.7739C40.624 22.5117 40.837 22.2988 41.0992 22.2988Z" fill="#38CFBB"/>
<rect x="21.7182" y="11.9766" width="38.6636" height="8.68293" fill="white"/>
<path d="M6.3675 8.28394C7.94025 8.28394 9.25088 8.83549 10.2994 9.93861C11.3588 11.0417 11.8885 12.4015 11.8885 14.0179C11.8885 15.6344 11.3588 16.9942 10.2994 18.0973C9.25088 19.2004 7.94025 19.752 6.3675 19.752H1.81306V8.28394H6.3675ZM6.3675 17.5894C7.36139 17.5894 8.16961 17.2618 8.79216 16.6064C9.41471 15.9402 9.72599 15.0774 9.72599 14.0179C9.72599 12.9585 9.41471 12.1011 8.79216 11.4458C8.16961 10.7796 7.36139 10.4465 6.3675 10.4465H4.07389V17.5894H6.3675ZM20.3731 18.7362C19.5321 19.5663 18.5054 19.9813 17.2931 19.9813C16.0808 19.9813 15.0541 19.5663 14.2131 18.7362C13.383 17.8952 12.968 16.8686 12.968 15.6562C12.968 14.4439 13.383 13.4227 14.2131 12.5926C15.0541 11.7516 16.0808 11.3312 17.2931 11.3312C18.5054 11.3312 19.5321 11.7516 20.3731 12.5926C21.2141 13.4227 21.6346 14.4439 21.6346 15.6562C21.6346 16.8686 21.2141 17.8952 20.3731 18.7362ZM15.7039 17.2781C16.1299 17.7041 16.6596 17.9171 17.2931 17.9171C17.9266 17.9171 18.4563 17.7041 18.8822 17.2781C19.3082 16.8522 19.5212 16.3115 19.5212 15.6562C19.5212 15.0009 19.3082 14.4603 18.8822 14.0343C18.4563 13.6084 17.9266 13.3954 17.2931 13.3954C16.6596 13.3954 16.1299 13.6084 15.7039 14.0343C15.2889 14.4603 15.0814 15.0009 15.0814 15.6562C15.0814 16.3115 15.2889 16.8522 15.7039 17.2781ZM27.0204 19.9813C25.7862 19.9813 24.7541 19.5663 23.9241 18.7362C23.1049 17.9061 22.6953 16.8795 22.6953 15.6562C22.6953 14.433 23.1049 13.4063 23.9241 12.5763C24.7541 11.7462 25.7862 11.3312 27.0204 11.3312C27.8177 11.3312 28.544 11.5223 29.1993 11.9046C29.8547 12.2868 30.3516 12.8002 30.6902 13.4445L28.8717 14.5094C28.7079 14.1709 28.4567 13.9033 28.1181 13.7067C27.7904 13.5101 27.4191 13.4118 27.004 13.4118C26.3706 13.4118 25.8463 13.6248 25.4313 14.0507C25.0163 14.4657 24.8087 15.0009 24.8087 15.6562C24.8087 16.3006 25.0163 16.8358 25.4313 17.2618C25.8463 17.6768 26.3706 17.8843 27.004 17.8843C27.43 17.8843 27.8068 17.7915 28.1345 17.6058C28.473 17.4092 28.7242 17.1416 28.8881 16.803L30.723 17.8515C30.3625 18.4959 29.8547 19.0147 29.1993 19.4079C28.544 19.7902 27.8177 19.9813 27.0204 19.9813ZM46.3053 12.9694C46.5018 12.4452 46.824 12.052 47.2718 11.7899C47.7306 11.5277 48.2384 11.3967 48.7954 11.3967V13.7558C48.1511 13.6794 47.5722 13.8104 47.0589 14.149C46.5565 14.4876 46.3053 15.0501 46.3053 15.8364V19.752H44.1919V11.5605H46.3053V12.9694ZM56.0021 11.5605H58.0664V19.3588C58.0664 20.6257 57.6459 21.5923 56.8049 22.2585C55.9748 22.9248 54.97 23.2579 53.7904 23.2579C52.9058 23.2579 52.1248 23.0886 51.4477 22.75C50.7814 22.4114 50.2681 21.9145 49.9077 21.2592L51.7098 20.2271C52.1248 20.9916 52.8402 21.3739 53.856 21.3739C54.5222 21.3739 55.0465 21.1991 55.4287 20.8496C55.811 20.5001 56.0021 20.0032 56.0021 19.3588V18.4741C55.3796 19.3042 54.5058 19.7192 53.3809 19.7192C52.2231 19.7192 51.2511 19.3151 50.4647 18.5069C49.6893 17.6877 49.3015 16.6938 49.3015 15.5252C49.3015 14.3674 49.6947 13.379 50.4811 12.5599C51.2675 11.7407 52.2341 11.3312 53.3809 11.3312C54.5058 11.3312 55.3796 11.7462 56.0021 12.5763V11.5605ZM52.0539 17.1471C52.4907 17.5621 53.0423 17.7696 53.7085 17.7696C54.3748 17.7696 54.9209 17.5621 55.3468 17.1471C55.7837 16.7211 56.0021 16.1805 56.0021 15.5252C56.0021 14.8808 55.7837 14.3511 55.3468 13.936C54.9209 13.5101 54.3748 13.2971 53.7085 13.2971C53.0423 13.2971 52.4907 13.5101 52.0539 13.936C51.6279 14.3511 51.4149 14.8808 51.4149 15.5252C51.4149 16.1805 51.6279 16.7211 52.0539 17.1471ZM66.2083 11.5605H68.3217V19.752H66.2083V18.7854C65.5748 19.5827 64.6847 19.9813 63.5379 19.9813C62.4457 19.9813 61.5064 19.5663 60.72 18.7362C59.9446 17.8952 59.5568 16.8686 59.5568 15.6562C59.5568 14.4439 59.9446 13.4227 60.72 12.5926C61.5064 11.7516 62.4457 11.3312 63.5379 11.3312C64.6847 11.3312 65.5748 11.7298 66.2083 12.5271V11.5605ZM62.3091 17.3273C62.7351 17.7532 63.2757 17.9662 63.9311 17.9662C64.5864 17.9662 65.127 17.7532 65.553 17.3273C65.9898 16.8904 66.2083 16.3334 66.2083 15.6562C66.2083 14.9791 65.9898 14.4275 65.553 14.0016C65.127 13.5647 64.5864 13.3462 63.9311 13.3462C63.2757 13.3462 62.7351 13.5647 62.3091 14.0016C61.8832 14.4275 61.6702 14.9791 61.6702 15.6562C61.6702 16.3334 61.8832 16.8904 62.3091 17.3273ZM74.7925 11.3312C75.6881 11.3312 76.4254 11.6315 77.0042 12.2322C77.594 12.8329 77.8889 13.663 77.8889 14.7224V19.752H75.7755V14.9845C75.7755 14.4384 75.6281 14.0234 75.3332 13.7394C75.0383 13.4445 74.6451 13.2971 74.1536 13.2971C73.6075 13.2971 73.1706 13.4664 72.843 13.805C72.5153 14.1435 72.3515 14.6514 72.3515 15.3286V19.752H70.2381V11.5605H72.3515V12.478C72.8648 11.7134 73.6785 11.3312 74.7925 11.3312ZM80.7419 10.5775C80.3924 10.5775 80.0866 10.4519 79.8245 10.2007C79.5733 9.93861 79.4477 9.63279 79.4477 9.28329C79.4477 8.93379 79.5733 8.62798 79.8245 8.36585C80.0866 8.10372 80.3924 7.97266 80.7419 7.97266C81.1024 7.97266 81.4082 8.10372 81.6594 8.36585C81.9215 8.62798 82.0526 8.93379 82.0526 9.28329C82.0526 9.63279 81.9215 9.93861 81.6594 10.2007C81.4082 10.4519 81.1024 10.5775 80.7419 10.5775ZM79.6934 19.752V11.5605H81.8068V19.752H79.6934ZM86.3133 17.7696H89.9503V19.752H83.479V18.343L86.9358 13.5428H83.6429V11.5605H89.7864V12.9694L86.3133 17.7696ZM92.7744 16.5245C93.0584 17.5512 93.8284 18.0645 95.0844 18.0645C95.8926 18.0645 96.5042 17.7915 96.9193 17.2454L98.6231 18.2283C97.8149 19.397 96.6244 19.9813 95.0516 19.9813C93.6973 19.9813 92.6106 19.5717 91.7914 18.7526C90.9723 17.9335 90.5627 16.9013 90.5627 15.6562C90.5627 14.4221 90.9668 13.3954 91.775 12.5763C92.5833 11.7462 93.6208 11.3312 94.8878 11.3312C96.0892 11.3312 97.0776 11.7462 97.8531 12.5763C98.6395 13.4063 99.0327 14.433 99.0327 15.6562C99.0327 15.9293 99.0054 16.2187 98.9507 16.5245H92.7744ZM92.7416 14.8862H96.9193C96.7991 14.3292 96.5479 13.9142 96.1657 13.6411C95.7943 13.3681 95.3684 13.2316 94.8878 13.2316C94.3198 13.2316 93.8502 13.379 93.4789 13.6739C93.1075 13.9579 92.8618 14.362 92.7416 14.8862ZM102.621 12.9694C102.818 12.4452 103.14 12.052 103.588 11.7899C104.047 11.5277 104.555 11.3967 105.112 11.3967V13.7558C104.467 13.6794 103.888 13.8104 103.375 14.149C102.873 14.4876 102.621 15.0501 102.621 15.8364V19.752H100.508V11.5605H102.621V12.9694Z" fill="#023E8A"/>
</svg>
