<svg width="23" height="22" viewBox="0 0 23 22" fill="none" xmlns="http://www.w3.org/2000/svg">
<path d="M11.6841 18.8183C9.54823 18.8183 7.4124 18.4791 5.38657 17.8008C4.61657 17.5349 4.0299 16.9941 3.77323 16.2883C3.5074 15.5824 3.59907 14.8033 4.02073 14.1066L5.0749 12.3558C5.2949 11.9891 5.49657 11.2558 5.49657 10.8249V8.17578C5.49657 4.76578 8.27407 1.98828 11.6841 1.98828C15.0941 1.98828 17.8716 4.76578 17.8716 8.17578V10.8249C17.8716 11.2466 18.0732 11.9891 18.2932 12.3649L19.3382 14.1066C19.7324 14.7666 19.8057 15.5641 19.5399 16.2883C19.2741 17.0124 18.6966 17.5624 17.9724 17.8008C15.9557 18.4791 13.8199 18.8183 11.6841 18.8183ZM11.6841 3.36328C9.0349 3.36328 6.87157 5.51745 6.87157 8.17578V10.8249C6.87157 11.4941 6.59657 12.4841 6.2574 13.0616L5.20323 14.8124C5.00157 15.1516 4.94657 15.5091 5.06573 15.8116C5.17573 16.1233 5.45073 16.3616 5.82657 16.4899C9.65823 17.7733 13.7191 17.7733 17.5507 16.4899C17.8807 16.3799 18.1374 16.1324 18.2566 15.8024C18.3757 15.4724 18.3482 15.1149 18.1649 14.8124L17.1107 13.0616C16.7624 12.4658 16.4966 11.4849 16.4966 10.8158V8.17578C16.4966 5.51745 14.3424 3.36328 11.6841 3.36328Z" fill="#023E8A"/>
<path d="M13.3892 3.61203C13.3251 3.61203 13.2609 3.60286 13.1967 3.58453C12.9309 3.5112 12.6742 3.4562 12.4267 3.41953C11.6476 3.3187 10.8959 3.3737 10.1901 3.58453C9.93342 3.66703 9.65842 3.58453 9.48425 3.39203C9.31008 3.19953 9.25508 2.92453 9.35592 2.67703C9.73175 1.71453 10.6484 1.08203 11.6934 1.08203C12.7384 1.08203 13.6551 1.70536 14.0309 2.67703C14.1226 2.92453 14.0767 3.19953 13.9026 3.39203C13.7651 3.5387 13.5726 3.61203 13.3892 3.61203Z" fill="#023E8A"/>
<path d="M11.6846 20.9102C10.7771 20.9102 9.89707 20.5435 9.2554 19.9018C8.61374 19.2602 8.24707 18.3802 8.24707 17.4727H9.62207C9.62207 18.0135 9.84207 18.5452 10.2271 18.9302C10.6121 19.3152 11.1437 19.5352 11.6846 19.5352C12.8212 19.5352 13.7471 18.6093 13.7471 17.4727H15.1221C15.1221 19.3702 13.5821 20.9102 11.6846 20.9102Z" fill="#023E8A"/>
</svg>
