<svg width="47" height="94" viewBox="0 0 47 94" fill="none" xmlns="http://www.w3.org/2000/svg">
<path d="M22.8468 15.84C27.2209 15.84 30.7668 12.2941 30.7668 7.92C30.7668 3.5459 27.2209 0 22.8468 0C18.4727 0 14.9268 3.5459 14.9268 7.92C14.9268 12.2941 18.4727 15.84 22.8468 15.84Z" fill="#0077B6"/>
<path d="M42.12 60.4783L30.7747 29.3032L30.7095 28.9826C30.7095 28.5276 31.0915 28.1589 31.5677 28.1589C31.9728 28.1589 32.3127 28.4296 32.4029 28.7906L40.1155 48.9583C40.6282 50.1122 42.7363 50.8783 44.1226 50.8783C45.9754 50.8783 46.1674 47.2399 46.1271 47.0383L38.4144 27.1528C37.7443 22.6965 33.2439 18.2383 28.1079 18.2383H18.0567C12.9207 18.2383 8.0861 22.6965 7.41602 27.1528L0.0489771 47.0383C-0.118063 47.4204 0.0489757 50.8783 2.05154 50.8783C3.60866 50.8783 5.68034 50.3349 6.05858 48.9583L13.4986 28.7042C13.5621 28.542 13.6734 28.403 13.8178 28.3056C13.9622 28.2082 14.1327 28.1571 14.3069 28.1589C14.7811 28.1589 15.1632 28.5276 15.1632 28.9807L15.1095 29.2744L4.05602 60.4783C4.0349 60.5704 4.05602 62.3042 4.05602 62.3983C4.05602 63.0626 5.65922 64.3183 6.35618 64.3183H13.4871V89.4607C13.4871 91.4575 15.2458 93.1183 17.3271 93.1183C19.4083 93.1183 21.1671 91.4556 21.1671 89.4607V64.301C21.1671 63.7576 25.0071 63.7749 25.0071 64.3183V89.2783C25.0071 91.2751 26.7677 93.1183 28.8471 93.1183C30.9322 93.1183 32.6871 91.2732 32.6871 89.2783V64.3183H40.1155C40.8106 64.3183 42.12 63.0626 42.12 62.3983C42.12 62.2447 42.1757 60.6108 42.12 60.4783Z" fill="#0077B6"/>
</svg>
