<svg width="36" height="94" viewBox="0 0 36 94" fill="none" xmlns="http://www.w3.org/2000/svg">
<path d="M8.39973 89.4697C8.39973 91.837 9.87429 93.3097 12.2397 93.3097C14.6109 93.3097 16.0797 91.837 16.0797 89.4697V52.9897H19.9197V89.4697C19.9197 91.8332 21.3924 93.3097 23.7597 93.3097C26.1271 93.3097 27.5997 91.837 27.5997 89.4697V28.0297H29.5197V50.7126C29.5197 55.311 35.2912 55.311 35.2797 50.7126V27.3788C35.2797 22.2985 31.6202 18.4297 25.6797 18.4297H10.3197C4.90533 18.4297 0.719727 21.7302 0.719727 27.2367V51.0697C0.719727 54.9097 6.47973 54.9097 6.47973 51.0697V28.0297H8.39973V89.4697Z" fill="#0077B6"/>
<path d="M17.7598 16.0295C22.1339 16.0295 25.6798 12.4835 25.6798 8.10945C25.6798 3.73536 22.1339 0.189453 17.7598 0.189453C13.3857 0.189453 9.83984 3.73536 9.83984 8.10945C9.83984 12.4835 13.3857 16.0295 17.7598 16.0295Z" fill="#0077B6"/>
</svg>
